<svg xmlns="http://www.w3.org/2000/svg" xmlns:xlink="http://www.w3.org/1999/xlink" width="148" zoomAndPan="magnify" viewBox="0 0 110.88 38.999999" height="52" preserveAspectRatio="xMidYMid meet" version="1.2"><defs><clipPath id="a9deaef71f"><path d="M 0 0.0195312 L 110.761719 0.0195312 L 110.761719 38.976562 L 0 38.976562 Z M 0 0.0195312 "/></clipPath><clipPath id="e828c2a1f7"><path d="M 0 8.882812 L 110.761719 8.882812 L 110.761719 33.292969 L 0 33.292969 Z M 0 8.882812 "/></clipPath><clipPath id="6cbfa14043"><path d="M 35 37 L 38 37 L 38 38.976562 L 35 38.976562 Z M 35 37 "/></clipPath><clipPath id="7638f096ab"><path d="M 37 37 L 39 37 L 39 38.976562 L 37 38.976562 Z M 37 37 "/></clipPath><clipPath id="8af7625f15"><path d="M 39 37 L 41 37 L 41 38.976562 L 39 38.976562 Z M 39 37 "/></clipPath><clipPath id="500eb6d31a"><path d="M 41 37 L 44 37 L 44 38.976562 L 41 38.976562 Z M 41 37 "/></clipPath><clipPath id="37dac6b323"><path d="M 43 37 L 45 37 L 45 38.976562 L 43 38.976562 Z M 43 37 "/></clipPath><clipPath id="176f8af2c1"><path d="M 45 37 L 47 37 L 47 38.976562 L 45 38.976562 Z M 45 37 "/></clipPath><clipPath id="07b0aa2084"><path d="M 47 37 L 50 37 L 50 38.976562 L 47 38.976562 Z M 47 37 "/></clipPath><clipPath id="82e0288e6f"><path d="M 49 37 L 51 37 L 51 38.976562 L 49 38.976562 Z M 49 37 "/></clipPath><clipPath id="4cd711a8c7"><path d="M 51 37 L 53 37 L 53 38.976562 L 51 38.976562 Z M 51 37 "/></clipPath><clipPath id="ce4cdc5361"><path d="M 53 37 L 55 37 L 55 38.976562 L 53 38.976562 Z M 53 37 "/></clipPath><clipPath id="f6fd7ec9c8"><path d="M 55 37 L 57 37 L 57 38.976562 L 55 38.976562 Z M 55 37 "/></clipPath><clipPath id="6c77912f26"><path d="M 57 37 L 59 37 L 59 38.976562 L 57 38.976562 Z M 57 37 "/></clipPath><clipPath id="40336f3647"><path d="M 59 37 L 61 37 L 61 38.976562 L 59 38.976562 Z M 59 37 "/></clipPath><clipPath id="a2d94b13c5"><path d="M 60 37 L 63 37 L 63 38.976562 L 60 38.976562 Z M 60 37 "/></clipPath><clipPath id="18d78f1d36"><path d="M 63 37 L 65 37 L 65 38.976562 L 63 38.976562 Z M 63 37 "/></clipPath><clipPath id="e1d861dd8c"><path d="M 66 37 L 68 37 L 68 38.976562 L 66 38.976562 Z M 66 37 "/></clipPath><clipPath id="98eb9b1197"><path d="M 67 37 L 69 37 L 69 38.976562 L 67 38.976562 Z M 67 37 "/></clipPath><clipPath id="fbb6b37665"><path d="M 69 37 L 71 37 L 71 38.976562 L 69 38.976562 Z M 69 37 "/></clipPath><clipPath id="b10ab5a4d1"><path d="M 71 37 L 73 37 L 73 38.976562 L 71 38.976562 Z M 71 37 "/></clipPath><clipPath id="aa949cfcfb"><path d="M 72 37 L 75 37 L 75 38.976562 L 72 38.976562 Z M 72 37 "/></clipPath><clipPath id="88873defc9"><path d="M 74 37 L 76 37 L 76 38.976562 L 74 38.976562 Z M 74 37 "/></clipPath><clipPath id="1028db4f2d"><path d="M 75 9 L 86 9 L 86 19.582031 L 75 19.582031 Z M 75 9 "/></clipPath><clipPath id="ca5ef29f0e"><path d="M 75 11 L 80 11 L 80 19.582031 L 75 19.582031 Z M 75 11 "/></clipPath><clipPath id="db4b75be9d"><path d="M 78 15 L 84 15 L 84 19.582031 L 78 19.582031 Z M 78 15 "/></clipPath><clipPath id="abfde206dd"><path d="M 76 6.097656 L 88.445312 6.097656 L 88.445312 11 L 76 11 Z M 76 6.097656 "/></clipPath><clipPath id="a996bf9d2c"><path d="M 74.210938 8 L 81 8 L 81 13 L 74.210938 13 Z M 74.210938 8 "/></clipPath><clipPath id="c29832cacc"><path d="M 74.210938 10 L 78 10 L 78 13 L 74.210938 13 Z M 74.210938 10 "/></clipPath><clipPath id="7495030ed9"><path d="M 78 17 L 84 17 L 84 19.582031 L 78 19.582031 Z M 78 17 "/></clipPath><clipPath id="5aff1e7486"><path d="M 82 6.097656 L 84 6.097656 L 84 8 L 82 8 Z M 82 6.097656 "/></clipPath></defs><g id="dec81b3b6d"><g clip-rule="nonzero" clip-path="url(#a9deaef71f)"><path style=" stroke:none;fill-rule:nonzero;fill:#ffffff;fill-opacity:1;" d="M 0 0.0195312 L 110.878906 0.0195312 L 110.878906 38.980469 L 0 38.980469 Z M 0 0.0195312 "/><path style=" stroke:none;fill-rule:nonzero;fill:#ffffff;fill-opacity:1;" d="M 0 0.0195312 L 110.878906 0.0195312 L 110.878906 38.980469 L 0 38.980469 Z M 0 0.0195312 "/></g><g clip-rule="nonzero" clip-path="url(#e828c2a1f7)"><path style=" stroke:none;fill-rule:nonzero;fill:#ffffff;fill-opacity:1;" d="M 0 8.882812 L 110.960938 8.882812 L 110.960938 33.292969 L 0 33.292969 Z M 0 8.882812 "/></g><g style="fill:#000000;fill-opacity:1;"><g transform="translate(8.197142, 18.420513)"><path style="stroke:none" d="M 3.296875 0.109375 C 2.785156 0.109375 2.328125 0.046875 1.921875 -0.078125 C 1.515625 -0.210938 1.175781 -0.378906 0.90625 -0.578125 C 0.644531 -0.785156 0.441406 -1.015625 0.296875 -1.265625 L 1.109375 -2.25 L 1.234375 -2.25 C 1.460938 -1.914062 1.75 -1.648438 2.09375 -1.453125 C 2.4375 -1.265625 2.835938 -1.171875 3.296875 -1.171875 C 3.691406 -1.171875 3.988281 -1.25 4.1875 -1.40625 C 4.382812 -1.570312 4.484375 -1.804688 4.484375 -2.109375 C 4.484375 -2.273438 4.453125 -2.414062 4.390625 -2.53125 C 4.328125 -2.65625 4.21875 -2.757812 4.0625 -2.84375 C 3.914062 -2.9375 3.71875 -3.007812 3.46875 -3.0625 L 2.515625 -3.28125 C 1.835938 -3.4375 1.335938 -3.691406 1.015625 -4.046875 C 0.691406 -4.398438 0.53125 -4.863281 0.53125 -5.4375 C 0.53125 -5.851562 0.632812 -6.21875 0.84375 -6.53125 C 1.050781 -6.851562 1.351562 -7.101562 1.75 -7.28125 C 2.15625 -7.457031 2.640625 -7.546875 3.203125 -7.546875 C 3.773438 -7.546875 4.265625 -7.46875 4.671875 -7.3125 C 5.078125 -7.164062 5.421875 -6.9375 5.703125 -6.625 L 4.984375 -5.625 L 4.859375 -5.625 C 4.648438 -5.84375 4.40625 -6.007812 4.125 -6.125 C 3.851562 -6.238281 3.546875 -6.296875 3.203125 -6.296875 C 2.796875 -6.296875 2.488281 -6.222656 2.28125 -6.078125 C 2.070312 -5.929688 1.96875 -5.734375 1.96875 -5.484375 C 1.96875 -5.253906 2.039062 -5.066406 2.1875 -4.921875 C 2.332031 -4.785156 2.585938 -4.675781 2.953125 -4.59375 L 3.921875 -4.390625 C 4.648438 -4.242188 5.175781 -3.988281 5.5 -3.625 C 5.820312 -3.257812 5.984375 -2.78125 5.984375 -2.1875 C 5.984375 -1.726562 5.882812 -1.328125 5.6875 -0.984375 C 5.488281 -0.640625 5.1875 -0.367188 4.78125 -0.171875 C 4.375 0.015625 3.878906 0.109375 3.296875 0.109375 Z M 3.296875 0.109375 "/></g></g><g style="fill:#000000;fill-opacity:1;"><g transform="translate(15.358428, 18.420513)"><path style="stroke:none" d="M 5.96875 -7.4375 L 5.96875 -6.203125 L 3.8125 -6.203125 L 3.8125 0 L 2.34375 0 L 2.34375 -6.203125 L 0.203125 -6.203125 L 0.203125 -7.4375 Z M 5.96875 -7.4375 "/></g></g><g style="fill:#000000;fill-opacity:1;"><g transform="translate(22.295882, 18.420513)"><path style="stroke:none" d="M 3.9375 0.109375 C 2.914062 0.109375 2.15625 -0.132812 1.65625 -0.625 C 1.164062 -1.113281 0.921875 -1.832031 0.921875 -2.78125 L 0.921875 -7.4375 L 2.359375 -7.4375 L 2.359375 -2.796875 C 2.359375 -2.253906 2.488281 -1.847656 2.75 -1.578125 C 3.007812 -1.304688 3.40625 -1.171875 3.9375 -1.171875 C 5 -1.171875 5.53125 -1.710938 5.53125 -2.796875 L 5.53125 -7.4375 L 6.96875 -7.4375 L 6.96875 -2.78125 C 6.96875 -1.832031 6.71875 -1.113281 6.21875 -0.625 C 5.726562 -0.132812 4.96875 0.109375 3.9375 0.109375 Z M 3.9375 0.109375 "/></g></g><g style="fill:#000000;fill-opacity:1;"><g transform="translate(30.95278, 18.420513)"><path style="stroke:none" d="M 3.640625 -7.4375 C 4.847656 -7.4375 5.769531 -7.125 6.40625 -6.5 C 7.039062 -5.875 7.359375 -4.945312 7.359375 -3.71875 C 7.359375 -2.488281 7.039062 -1.5625 6.40625 -0.9375 C 5.769531 -0.3125 4.847656 0 3.640625 0 L 0.96875 0 L 0.96875 -7.4375 Z M 3.5625 -1.234375 C 4.320312 -1.234375 4.890625 -1.425781 5.265625 -1.8125 C 5.648438 -2.207031 5.84375 -2.84375 5.84375 -3.71875 C 5.84375 -4.59375 5.648438 -5.222656 5.265625 -5.609375 C 4.890625 -6.003906 4.320312 -6.203125 3.5625 -6.203125 L 2.4375 -6.203125 L 2.4375 -1.234375 Z M 3.5625 -1.234375 "/></g></g><g style="fill:#000000;fill-opacity:1;"><g transform="translate(39.67581, 18.420513)"><path style="stroke:none" d="M 4.078125 0 L 2.609375 0 L 2.609375 -2.921875 L 0.03125 -7.4375 L 1.609375 -7.4375 L 3.3125 -4.515625 L 3.4375 -4.515625 L 5.109375 -7.4375 L 6.640625 -7.4375 L 4.078125 -2.921875 Z M 4.078125 0 "/></g></g><g style="fill:#000000;fill-opacity:1;"><g transform="translate(47.127062, 18.420513)"><path style="stroke:none" d=""/></g></g><g style="fill:#000000;fill-opacity:1;"><g transform="translate(50.356008, 18.420513)"><path style="stroke:none" d="M 7.140625 0 L 5.59375 0 L 5.03125 -1.71875 L 2.1875 -1.71875 L 1.625 0 L 0.109375 0 L 2.6875 -7.4375 L 4.5625 -7.4375 Z M 3.53125 -5.890625 L 2.578125 -2.953125 L 4.625 -2.953125 L 3.65625 -5.890625 Z M 3.53125 -5.890625 "/></g></g><g style="fill:#000000;fill-opacity:1;"><g transform="translate(58.377017, 18.420513)"><path style="stroke:none" d="M 0.96875 0 L 0.96875 -7.4375 L 4.140625 -7.4375 C 4.597656 -7.4375 4.984375 -7.363281 5.296875 -7.21875 C 5.617188 -7.070312 5.859375 -6.863281 6.015625 -6.59375 C 6.179688 -6.332031 6.265625 -6.019531 6.265625 -5.65625 C 6.265625 -5.332031 6.1875 -5.046875 6.03125 -4.796875 C 5.875 -4.546875 5.644531 -4.34375 5.34375 -4.1875 L 5.34375 -4.078125 C 5.8125 -3.953125 6.171875 -3.726562 6.421875 -3.40625 C 6.679688 -3.09375 6.8125 -2.703125 6.8125 -2.234375 C 6.8125 -1.515625 6.59375 -0.960938 6.15625 -0.578125 C 5.726562 -0.191406 5.09375 0 4.25 0 Z M 3.84375 -4.46875 C 4.519531 -4.46875 4.859375 -4.78125 4.859375 -5.40625 C 4.859375 -5.71875 4.773438 -5.945312 4.609375 -6.09375 C 4.441406 -6.25 4.1875 -6.328125 3.84375 -6.328125 L 2.4375 -6.328125 L 2.4375 -4.46875 Z M 4.109375 -1.171875 C 4.921875 -1.171875 5.328125 -1.535156 5.328125 -2.265625 C 5.328125 -3.003906 4.921875 -3.375 4.109375 -3.375 L 2.4375 -3.375 L 2.4375 -1.171875 Z M 4.109375 -1.171875 "/></g></g><g style="fill:#000000;fill-opacity:1;"><g transform="translate(66.423462, 18.420513)"><path style="stroke:none" d="M 0.96875 0 L 0.96875 -7.4375 L 3.953125 -7.4375 C 4.722656 -7.4375 5.300781 -7.257812 5.6875 -6.90625 C 6.082031 -6.550781 6.28125 -6.0625 6.28125 -5.4375 C 6.28125 -4.988281 6.164062 -4.617188 5.9375 -4.328125 C 5.707031 -4.035156 5.367188 -3.816406 4.921875 -3.671875 L 4.921875 -3.5625 C 5.148438 -3.457031 5.335938 -3.304688 5.484375 -3.109375 C 5.628906 -2.910156 5.765625 -2.613281 5.890625 -2.21875 L 6.640625 0 L 5.125 0 L 4.390625 -2.21875 C 4.316406 -2.445312 4.234375 -2.625 4.140625 -2.75 C 4.046875 -2.875 3.925781 -2.960938 3.78125 -3.015625 C 3.644531 -3.066406 3.457031 -3.09375 3.21875 -3.09375 L 2.4375 -3.09375 L 2.4375 0 Z M 3.78125 -4.265625 C 4.488281 -4.265625 4.84375 -4.597656 4.84375 -5.265625 C 4.84375 -5.941406 4.488281 -6.28125 3.78125 -6.28125 L 2.4375 -6.28125 L 2.4375 -4.265625 Z M 3.78125 -4.265625 "/></g></g><g style="fill:#000000;fill-opacity:1;"><g transform="translate(74.160906, 18.420513)"><path style="stroke:none" d=""/></g></g><g style="fill:#000000;fill-opacity:1;"><g transform="translate(77.389853, 18.420513)"><path style="stroke:none" d=""/></g></g><g style="fill:#000000;fill-opacity:1;"><g transform="translate(80.618799, 18.420513)"><path style="stroke:none" d=""/></g></g><g style="fill:#000000;fill-opacity:1;"><g transform="translate(83.847745, 18.420513)"><path style="stroke:none" d=""/></g></g><g style="fill:#000000;fill-opacity:1;"><g transform="translate(87.084419, 18.420513)"><path style="stroke:none" d="M 7.140625 0 L 5.59375 0 L 5.03125 -1.71875 L 2.1875 -1.71875 L 1.625 0 L 0.109375 0 L 2.6875 -7.4375 L 4.5625 -7.4375 Z M 3.53125 -5.890625 L 2.578125 -2.953125 L 4.625 -2.953125 L 3.65625 -5.890625 Z M 3.53125 -5.890625 "/></g></g><g style="fill:#000000;fill-opacity:1;"><g transform="translate(95.105428, 18.420513)"><path style="stroke:none" d="M 3.640625 -7.4375 C 4.847656 -7.4375 5.769531 -7.125 6.40625 -6.5 C 7.039062 -5.875 7.359375 -4.945312 7.359375 -3.71875 C 7.359375 -2.488281 7.039062 -1.5625 6.40625 -0.9375 C 5.769531 -0.3125 4.847656 0 3.640625 0 L 0.96875 0 L 0.96875 -7.4375 Z M 3.5625 -1.234375 C 4.320312 -1.234375 4.890625 -1.425781 5.265625 -1.8125 C 5.648438 -2.207031 5.84375 -2.84375 5.84375 -3.71875 C 5.84375 -4.59375 5.648438 -5.222656 5.265625 -5.609375 C 4.890625 -6.003906 4.320312 -6.203125 3.5625 -6.203125 L 2.4375 -6.203125 L 2.4375 -1.234375 Z M 3.5625 -1.234375 "/></g></g><g style="fill:#000000;fill-opacity:1;"><g transform="translate(33.014033, 27.410783)"><path style="stroke:none" d="M 4.0625 0.109375 C 3.375 0.109375 2.769531 -0.03125 2.25 -0.3125 C 1.726562 -0.601562 1.316406 -1.035156 1.015625 -1.609375 C 0.722656 -2.179688 0.578125 -2.882812 0.578125 -3.71875 C 0.578125 -4.5625 0.722656 -5.265625 1.015625 -5.828125 C 1.316406 -6.398438 1.726562 -6.828125 2.25 -7.109375 C 2.769531 -7.398438 3.375 -7.546875 4.0625 -7.546875 C 4.78125 -7.546875 5.390625 -7.40625 5.890625 -7.125 C 6.390625 -6.84375 6.75 -6.414062 6.96875 -5.84375 L 5.890625 -5.1875 L 5.765625 -5.203125 C 5.597656 -5.585938 5.378906 -5.863281 5.109375 -6.03125 C 4.835938 -6.195312 4.488281 -6.28125 4.0625 -6.28125 C 3.445312 -6.28125 2.96875 -6.070312 2.625 -5.65625 C 2.28125 -5.25 2.109375 -4.601562 2.109375 -3.71875 C 2.109375 -2.832031 2.28125 -2.1875 2.625 -1.78125 C 2.96875 -1.375 3.445312 -1.171875 4.0625 -1.171875 C 5.03125 -1.171875 5.625 -1.640625 5.84375 -2.578125 L 5.96875 -2.578125 L 7.046875 -2.015625 C 6.847656 -1.304688 6.5 -0.773438 6 -0.421875 C 5.507812 -0.0664062 4.863281 0.109375 4.0625 0.109375 Z M 4.0625 0.109375 "/></g></g><g style="fill:#000000;fill-opacity:1;"><g transform="translate(41.080826, 27.410783)"><path style="stroke:none" d="M 2.4375 -3.265625 L 2.4375 -1.234375 L 5.984375 -1.234375 L 5.984375 0 L 0.96875 0 L 0.96875 -7.4375 L 5.90625 -7.4375 L 5.90625 -6.203125 L 2.4375 -6.203125 L 2.4375 -4.46875 L 5.46875 -4.46875 L 5.46875 -3.265625 Z M 2.4375 -3.265625 "/></g></g><g style="fill:#000000;fill-opacity:1;"><g transform="translate(48.247199, 27.410783)"><path style="stroke:none" d="M 2.390625 0 L 0.96875 0 L 0.96875 -7.4375 L 2.65625 -7.4375 L 5.640625 -2.640625 L 5.765625 -2.671875 L 5.765625 -7.4375 L 7.1875 -7.4375 L 7.1875 0 L 5.671875 0 L 2.515625 -5.125 L 2.390625 -5.09375 Z M 2.390625 0 "/></g></g><g style="fill:#000000;fill-opacity:1;"><g transform="translate(57.173714, 27.410783)"><path style="stroke:none" d="M 5.96875 -7.4375 L 5.96875 -6.203125 L 3.8125 -6.203125 L 3.8125 0 L 2.34375 0 L 2.34375 -6.203125 L 0.203125 -6.203125 L 0.203125 -7.4375 Z M 5.96875 -7.4375 "/></g></g><g style="fill:#000000;fill-opacity:1;"><g transform="translate(64.111168, 27.410783)"><path style="stroke:none" d="M 0.96875 0 L 0.96875 -7.4375 L 3.953125 -7.4375 C 4.722656 -7.4375 5.300781 -7.257812 5.6875 -6.90625 C 6.082031 -6.550781 6.28125 -6.0625 6.28125 -5.4375 C 6.28125 -4.988281 6.164062 -4.617188 5.9375 -4.328125 C 5.707031 -4.035156 5.367188 -3.816406 4.921875 -3.671875 L 4.921875 -3.5625 C 5.148438 -3.457031 5.335938 -3.304688 5.484375 -3.109375 C 5.628906 -2.910156 5.765625 -2.613281 5.890625 -2.21875 L 6.640625 0 L 5.125 0 L 4.390625 -2.21875 C 4.316406 -2.445312 4.234375 -2.625 4.140625 -2.75 C 4.046875 -2.875 3.925781 -2.960938 3.78125 -3.015625 C 3.644531 -3.066406 3.457031 -3.09375 3.21875 -3.09375 L 2.4375 -3.09375 L 2.4375 0 Z M 3.78125 -4.265625 C 4.488281 -4.265625 4.84375 -4.597656 4.84375 -5.265625 C 4.84375 -5.941406 4.488281 -6.28125 3.78125 -6.28125 L 2.4375 -6.28125 L 2.4375 -4.265625 Z M 3.78125 -4.265625 "/></g></g><g style="fill:#000000;fill-opacity:1;"><g transform="translate(71.837124, 27.410783)"><path style="stroke:none" d="M 2.4375 -3.265625 L 2.4375 -1.234375 L 5.984375 -1.234375 L 5.984375 0 L 0.96875 0 L 0.96875 -7.4375 L 5.90625 -7.4375 L 5.90625 -6.203125 L 2.4375 -6.203125 L 2.4375 -4.46875 L 5.46875 -4.46875 L 5.46875 -3.265625 Z M 2.4375 -3.265625 "/></g></g><g clip-rule="nonzero" clip-path="url(#6cbfa14043)"><g style="fill:#ffffff;fill-opacity:1;"><g transform="translate(35.392452, 39.258173)"><path style="stroke:none" d="M 0.453125 -0.09375 L 1.359375 -0.09375 L 1.359375 -1.453125 L 0.765625 -1.453125 C 0.765625 -0.734375 0.660156 -0.28125 0.453125 -0.09375 Z M 0 0.40625 L 0 -0.09375 L 0.203125 -0.09375 C 0.503906 -0.09375 0.65625 -0.546875 0.65625 -1.453125 L 0.65625 -1.546875 L 1.46875 -1.546875 L 1.46875 -0.09375 L 1.671875 -0.09375 L 1.671875 0.40625 L 1.5625 0.40625 L 1.5625 0 L 0.109375 0 L 0.109375 0.40625 Z M 0 0.40625 "/></g></g></g><g clip-rule="nonzero" clip-path="url(#7638f096ab)"><g style="fill:#ffffff;fill-opacity:1;"><g transform="translate(37.357658, 39.258173)"><path style="stroke:none" d="M 1.265625 0 L 1.265625 -1.375 L 0.296875 0 L 0.171875 0 L 0.171875 -1.546875 L 0.28125 -1.546875 L 0.28125 -0.171875 L 1.25 -1.546875 L 1.375 -1.546875 L 1.375 0 Z M 1.265625 0 "/></g></g></g><g clip-rule="nonzero" clip-path="url(#8af7625f15)"><g style="fill:#ffffff;fill-opacity:1;"><g transform="translate(39.123478, 39.258173)"><path style="stroke:none" d="M 0.453125 -0.09375 L 1.359375 -0.09375 L 1.359375 -1.453125 L 0.765625 -1.453125 C 0.765625 -0.734375 0.660156 -0.28125 0.453125 -0.09375 Z M 0 0.40625 L 0 -0.09375 L 0.203125 -0.09375 C 0.503906 -0.09375 0.65625 -0.546875 0.65625 -1.453125 L 0.65625 -1.546875 L 1.46875 -1.546875 L 1.46875 -0.09375 L 1.671875 -0.09375 L 1.671875 0.40625 L 1.5625 0.40625 L 1.5625 0 L 0.109375 0 L 0.109375 0.40625 Z M 0 0.40625 "/></g></g></g><g clip-rule="nonzero" clip-path="url(#500eb6d31a)"><g style="fill:#ffffff;fill-opacity:1;"><g transform="translate(41.088685, 39.258173)"><path style="stroke:none" d="M 1.984375 0 C 1.734375 -0.382812 1.578125 -0.609375 1.515625 -0.671875 C 1.453125 -0.742188 1.378906 -0.78125 1.296875 -0.78125 L 1.296875 -0.859375 C 1.441406 -0.859375 1.570312 -0.972656 1.6875 -1.203125 C 1.800781 -1.429688 1.925781 -1.546875 2.0625 -1.546875 L 2.1875 -1.546875 L 2.1875 -1.453125 L 2.09375 -1.453125 C 1.976562 -1.453125 1.875 -1.351562 1.78125 -1.15625 C 1.6875 -0.957031 1.585938 -0.847656 1.484375 -0.828125 C 1.535156 -0.816406 1.59375 -0.773438 1.65625 -0.703125 C 1.71875 -0.628906 1.878906 -0.394531 2.140625 0 Z M 1.15625 -1.546875 L 1.15625 0 L 1.046875 0 L 1.046875 -1.546875 Z M 0.078125 0 C 0.328125 -0.394531 0.484375 -0.628906 0.546875 -0.703125 C 0.617188 -0.773438 0.679688 -0.816406 0.734375 -0.828125 C 0.628906 -0.847656 0.523438 -0.957031 0.421875 -1.15625 C 0.328125 -1.351562 0.222656 -1.453125 0.109375 -1.453125 L 0.03125 -1.453125 L 0.03125 -1.546875 L 0.140625 -1.546875 C 0.273438 -1.546875 0.398438 -1.429688 0.515625 -1.203125 C 0.640625 -0.972656 0.773438 -0.859375 0.921875 -0.859375 L 0.921875 -0.78125 C 0.835938 -0.78125 0.757812 -0.742188 0.6875 -0.671875 C 0.625 -0.609375 0.472656 -0.382812 0.234375 0 Z M 0.078125 0 "/></g></g></g><g clip-rule="nonzero" clip-path="url(#37dac6b323)"><g style="fill:#ffffff;fill-opacity:1;"><g transform="translate(43.509011, 39.258173)"><path style="stroke:none" d="M 1.1875 -1.546875 L 1.1875 -1.453125 L 0.28125 -1.453125 L 0.28125 -0.828125 L 1.15625 -0.828125 L 1.15625 -0.734375 L 0.28125 -0.734375 L 0.28125 -0.09375 L 1.203125 -0.09375 L 1.203125 0 L 0.171875 0 L 0.171875 -1.546875 Z M 1.1875 -1.546875 "/></g></g></g><g clip-rule="nonzero" clip-path="url(#176f8af2c1)"><g style="fill:#ffffff;fill-opacity:1;"><g transform="translate(45.072194, 39.258173)"><path style="stroke:none" d="M 0.515625 -1.9375 L 0.59375 -1.9375 C 0.59375 -1.800781 0.65625 -1.734375 0.78125 -1.734375 C 0.90625 -1.734375 0.96875 -1.800781 0.96875 -1.9375 L 1.0625 -1.9375 C 1.0625 -1.75 0.96875 -1.65625 0.78125 -1.65625 C 0.601562 -1.65625 0.515625 -1.75 0.515625 -1.9375 Z M 1.265625 0 L 1.265625 -1.375 L 0.296875 0 L 0.171875 0 L 0.171875 -1.546875 L 0.28125 -1.546875 L 0.28125 -0.171875 L 1.25 -1.546875 L 1.375 -1.546875 L 1.375 0 Z M 1.265625 0 "/></g></g></g><g clip-rule="nonzero" clip-path="url(#07b0aa2084)"><g style="fill:#ffffff;fill-opacity:1;"><g transform="translate(47.590653, 39.258173)"><path style="stroke:none" d="M 0.453125 -0.09375 L 1.359375 -0.09375 L 1.359375 -1.453125 L 0.765625 -1.453125 C 0.765625 -0.734375 0.660156 -0.28125 0.453125 -0.09375 Z M 0 0.40625 L 0 -0.09375 L 0.203125 -0.09375 C 0.503906 -0.09375 0.65625 -0.546875 0.65625 -1.453125 L 0.65625 -1.546875 L 1.46875 -1.546875 L 1.46875 -0.09375 L 1.671875 -0.09375 L 1.671875 0.40625 L 1.5625 0.40625 L 1.5625 0 L 0.109375 0 L 0.109375 0.40625 Z M 0 0.40625 "/></g></g></g><g clip-rule="nonzero" clip-path="url(#82e0288e6f)"><g style="fill:#ffffff;fill-opacity:1;"><g transform="translate(49.555859, 39.258173)"><path style="stroke:none" d="M 0 -0.09375 C 0.300781 -0.09375 0.453125 -0.347656 0.453125 -0.859375 L 0.453125 -1.546875 L 1.375 -1.546875 L 1.375 0 L 1.265625 0 L 1.265625 -1.453125 L 0.5625 -1.453125 L 0.5625 -0.859375 C 0.5625 -0.285156 0.375 0 0 0 Z M 0 -0.09375 "/></g></g></g><g clip-rule="nonzero" clip-path="url(#4cd711a8c7)"><g style="fill:#ffffff;fill-opacity:1;"><g transform="translate(51.320596, 39.258173)"><path style="stroke:none" d="M 1.046875 0 L 1.046875 -1.453125 L 0.53125 -1.453125 C 0.320312 -1.453125 0.21875 -1.359375 0.21875 -1.171875 C 0.21875 -0.960938 0.378906 -0.835938 0.703125 -0.796875 L 0.703125 -0.71875 L 0.1875 0 L 0.03125 0 L 0.546875 -0.71875 C 0.242188 -0.8125 0.09375 -0.960938 0.09375 -1.171875 C 0.09375 -1.421875 0.234375 -1.546875 0.515625 -1.546875 L 1.15625 -1.546875 L 1.15625 0 Z M 1.046875 0 "/></g></g></g><g clip-rule="nonzero" clip-path="url(#ce4cdc5361)"><g style="fill:#ffffff;fill-opacity:1;"><g transform="translate(53.611494, 39.258173)"><path style="stroke:none" d="M 0.171875 0 L 0.171875 -1.546875 L 0.828125 -1.546875 C 1.128906 -1.546875 1.28125 -1.40625 1.28125 -1.125 C 1.28125 -0.84375 1.035156 -0.664062 0.546875 -0.59375 L 0.53125 -0.6875 C 0.945312 -0.75 1.15625 -0.890625 1.15625 -1.109375 C 1.15625 -1.335938 1.039062 -1.453125 0.8125 -1.453125 L 0.28125 -1.453125 L 0.28125 0 Z M 0.171875 0 "/></g></g></g><g clip-rule="nonzero" clip-path="url(#f6fd7ec9c8)"><g style="fill:#ffffff;fill-opacity:1;"><g transform="translate(55.190932, 39.258173)"><path style="stroke:none" d="M 0.15625 0 L 0.03125 0 L 0.734375 -1.546875 L 0.875 -1.546875 L 1.578125 0 L 1.4375 0 L 1.21875 -0.515625 L 0.515625 -0.515625 L 0.546875 -0.625 L 1.171875 -0.625 L 0.796875 -1.453125 Z M 0.15625 0 "/></g></g></g><g clip-rule="nonzero" clip-path="url(#6c77912f26)"><g style="fill:#ffffff;fill-opacity:1;"><g transform="translate(57.018519, 39.258173)"><path style="stroke:none" d="M 0.453125 -0.09375 L 1.359375 -0.09375 L 1.359375 -1.453125 L 0.765625 -1.453125 C 0.765625 -0.734375 0.660156 -0.28125 0.453125 -0.09375 Z M 0 0.40625 L 0 -0.09375 L 0.203125 -0.09375 C 0.503906 -0.09375 0.65625 -0.546875 0.65625 -1.453125 L 0.65625 -1.546875 L 1.46875 -1.546875 L 1.46875 -0.09375 L 1.671875 -0.09375 L 1.671875 0.40625 L 1.5625 0.40625 L 1.5625 0 L 0.109375 0 L 0.109375 0.40625 Z M 0 0.40625 "/></g></g></g><g clip-rule="nonzero" clip-path="url(#40336f3647)"><g style="fill:#ffffff;fill-opacity:1;"><g transform="translate(58.983726, 39.258173)"><path style="stroke:none" d="M 1.265625 0 L 1.265625 -1.375 L 0.296875 0 L 0.171875 0 L 0.171875 -1.546875 L 0.28125 -1.546875 L 0.28125 -0.171875 L 1.25 -1.546875 L 1.375 -1.546875 L 1.375 0 Z M 1.265625 0 "/></g></g></g><g clip-rule="nonzero" clip-path="url(#a2d94b13c5)"><g style="fill:#ffffff;fill-opacity:1;"><g transform="translate(60.749546, 39.258173)"><path style="stroke:none" d="M 0.25 -0.78125 C 0.25 -0.320312 0.460938 -0.09375 0.890625 -0.09375 C 1.316406 -0.09375 1.53125 -0.320312 1.53125 -0.78125 C 1.53125 -1.238281 1.316406 -1.46875 0.890625 -1.46875 C 0.460938 -1.46875 0.25 -1.238281 0.25 -0.78125 Z M 0.125 -0.765625 C 0.125 -1.296875 0.378906 -1.5625 0.890625 -1.5625 C 1.398438 -1.5625 1.65625 -1.296875 1.65625 -0.765625 C 1.65625 -0.242188 1.398438 0.015625 0.890625 0.015625 C 0.378906 0.015625 0.125 -0.242188 0.125 -0.765625 Z M 0.125 -0.765625 "/></g></g></g><g clip-rule="nonzero" clip-path="url(#18d78f1d36)"><g style="fill:#ffffff;fill-opacity:1;"><g transform="translate(63.495564, 39.258173)"><path style="stroke:none" d="M 1.265625 0 L 1.265625 -1.375 L 0.296875 0 L 0.171875 0 L 0.171875 -1.546875 L 0.28125 -1.546875 L 0.28125 -0.171875 L 1.25 -1.546875 L 1.375 -1.546875 L 1.375 0 Z M 1.265625 0 "/></g></g></g><g clip-rule="nonzero" clip-path="url(#e1d861dd8c)"><g style="fill:#ffffff;fill-opacity:1;"><g transform="translate(66.014022, 39.258173)"><path style="stroke:none" d="M 1.109375 0 C 0.859375 -0.382812 0.703125 -0.609375 0.640625 -0.671875 C 0.578125 -0.742188 0.503906 -0.78125 0.421875 -0.78125 L 0.421875 -0.859375 C 0.566406 -0.859375 0.695312 -0.972656 0.8125 -1.203125 C 0.925781 -1.429688 1.050781 -1.546875 1.1875 -1.546875 L 1.3125 -1.546875 L 1.3125 -1.453125 L 1.21875 -1.453125 C 1.101562 -1.453125 0.992188 -1.351562 0.890625 -1.15625 C 0.785156 -0.957031 0.691406 -0.847656 0.609375 -0.828125 C 0.660156 -0.816406 0.71875 -0.773438 0.78125 -0.703125 C 0.84375 -0.628906 1.003906 -0.394531 1.265625 0 Z M 0.28125 -1.546875 L 0.28125 0 L 0.171875 0 L 0.171875 -1.546875 Z M 0.28125 -1.546875 "/></g></g></g><g clip-rule="nonzero" clip-path="url(#98eb9b1197)"><g style="fill:#ffffff;fill-opacity:1;"><g transform="translate(67.559868, 39.258173)"><path style="stroke:none" d="M 0 -0.09375 C 0.300781 -0.09375 0.453125 -0.347656 0.453125 -0.859375 L 0.453125 -1.546875 L 1.375 -1.546875 L 1.375 0 L 1.265625 0 L 1.265625 -1.453125 L 0.5625 -1.453125 L 0.5625 -0.859375 C 0.5625 -0.285156 0.375 0 0 0 Z M 0 -0.09375 "/></g></g></g><g clip-rule="nonzero" clip-path="url(#fbb6b37665)"><g style="fill:#ffffff;fill-opacity:1;"><g transform="translate(69.324605, 39.258173)"><path style="stroke:none" d="M 1.390625 -1.546875 L 0.859375 -0.296875 C 0.773438 -0.0976562 0.632812 0 0.4375 0 C 0.34375 0 0.253906 -0.0234375 0.171875 -0.078125 L 0.171875 -0.171875 C 0.253906 -0.117188 0.34375 -0.09375 0.4375 -0.09375 C 0.582031 -0.09375 0.679688 -0.160156 0.734375 -0.296875 L 0.046875 -1.546875 L 0.171875 -1.546875 L 0.796875 -0.40625 L 1.265625 -1.546875 Z M 1.390625 -1.546875 "/></g></g></g><g clip-rule="nonzero" clip-path="url(#b10ab5a4d1)"><g style="fill:#ffffff;fill-opacity:1;"><g transform="translate(70.951723, 39.258173)"><path style="stroke:none" d="M 1.25 -1.546875 L 1.25 -1.453125 L 0.28125 -1.453125 L 0.28125 -0.09375 L 0.8125 -0.09375 C 1.039062 -0.09375 1.15625 -0.207031 1.15625 -0.4375 C 1.15625 -0.675781 1.019531 -0.796875 0.75 -0.796875 L 0.546875 -0.796875 L 0.546875 -0.890625 L 0.765625 -0.890625 C 1.109375 -0.890625 1.28125 -0.742188 1.28125 -0.453125 C 1.28125 -0.148438 1.128906 0 0.828125 0 L 0.171875 0 L 0.171875 -1.546875 Z M 1.25 -1.546875 "/></g></g></g><g clip-rule="nonzero" clip-path="url(#aa949cfcfb)"><g style="fill:#ffffff;fill-opacity:1;"><g transform="translate(72.572338, 39.258173)"><path style="stroke:none" d="M 0.25 -0.78125 C 0.25 -0.320312 0.460938 -0.09375 0.890625 -0.09375 C 1.316406 -0.09375 1.53125 -0.320312 1.53125 -0.78125 C 1.53125 -1.238281 1.316406 -1.46875 0.890625 -1.46875 C 0.460938 -1.46875 0.25 -1.238281 0.25 -0.78125 Z M 0.125 -0.765625 C 0.125 -1.296875 0.378906 -1.5625 0.890625 -1.5625 C 1.398438 -1.5625 1.65625 -1.296875 1.65625 -0.765625 C 1.65625 -0.242188 1.398438 0.015625 0.890625 0.015625 C 0.378906 0.015625 0.125 -0.242188 0.125 -0.765625 Z M 0.125 -0.765625 "/></g></g></g><g clip-rule="nonzero" clip-path="url(#88873defc9)"><g style="fill:#ffffff;fill-opacity:1;"><g transform="translate(74.565719, 39.258173)"><path style="stroke:none" d="M 0.171875 0 L 0.171875 -1.546875 L 0.828125 -1.546875 C 1.128906 -1.546875 1.28125 -1.425781 1.28125 -1.1875 C 1.28125 -1.007812 1.171875 -0.882812 0.953125 -0.8125 C 1.179688 -0.769531 1.296875 -0.648438 1.296875 -0.453125 C 1.296875 -0.148438 1.132812 0 0.8125 0 Z M 0.796875 -0.09375 C 1.046875 -0.09375 1.171875 -0.207031 1.171875 -0.4375 C 1.171875 -0.644531 1.015625 -0.75 0.703125 -0.75 L 0.625 -0.75 L 0.625 -0.828125 C 0.976562 -0.859375 1.15625 -0.976562 1.15625 -1.1875 C 1.15625 -1.363281 1.046875 -1.453125 0.828125 -1.453125 L 0.28125 -1.453125 L 0.28125 -0.09375 Z M 0.796875 -0.09375 "/></g></g></g><path style=" stroke:none;fill-rule:nonzero;fill:#2a3134;fill-opacity:1;" d="M 84.28125 11.4375 L 84.28125 11.484375 C 84.203125 11.746094 82.96875 11.613281 81.527344 11.183594 C 80.082031 10.757812 78.976562 10.199219 79.054688 9.9375 C 79.066406 9.929688 79.058594 9.773438 79.671875 9.808594 C 80.183594 9.835938 80.957031 9.984375 81.808594 10.238281 C 82.660156 10.488281 83.390625 10.785156 83.835938 11.042969 C 84.101562 11.195312 84.265625 11.335938 84.28125 11.4375 Z M 84.28125 11.4375 "/><path style=" stroke:none;fill-rule:nonzero;fill:#181e1e;fill-opacity:1;" d="M 83.839844 11.097656 C 83.777344 11.308594 82.785156 11.199219 81.625 10.855469 C 80.464844 10.511719 79.574219 10.0625 79.636719 9.851562 C 79.640625 9.835938 79.652344 9.820312 79.671875 9.808594 C 80.183594 9.835938 80.957031 9.984375 81.808594 10.238281 C 82.660156 10.488281 83.390625 10.789062 83.835938 11.042969 C 83.84375 11.0625 83.84375 11.082031 83.839844 11.097656 Z M 83.839844 11.097656 "/><g clip-rule="nonzero" clip-path="url(#1028db4f2d)"><path style=" stroke:none;fill-rule:nonzero;fill:#71d8f8;fill-opacity:1;" d="M 85.324219 14.539062 C 85.324219 17.195312 83.167969 19.339844 80.515625 19.339844 C 77.871094 19.339844 75.703125 17.203125 75.703125 14.539062 C 75.703125 13.167969 76.277344 11.929688 77.203125 11.054688 C 78.539062 9.789062 80.445312 9.421875 82.117188 10.011719 C 83.992188 10.671875 85.324219 12.457031 85.324219 14.539062 Z M 85.324219 14.539062 "/></g><g clip-rule="nonzero" clip-path="url(#ca5ef29f0e)"><path style=" stroke:none;fill-rule:nonzero;fill:#50c9eb;fill-opacity:1;" d="M 79.054688 19.113281 C 77.109375 18.5 75.703125 16.683594 75.703125 14.539062 C 75.703125 13.167969 76.277344 11.929688 77.203125 11.054688 C 77.039062 11.601562 76.960938 12.171875 76.964844 12.742188 C 76.839844 12.929688 76.957031 13.308594 76.761719 13.425781 C 76.703125 13.371094 76.59375 13.394531 76.585938 13.484375 C 76.578125 13.566406 76.648438 13.632812 76.71875 13.675781 C 76.789062 13.71875 76.871094 13.753906 76.917969 13.824219 C 76.960938 13.890625 76.9375 14.011719 76.855469 14.019531 C 76.796875 14.027344 76.75 13.976562 76.691406 13.957031 C 76.636719 13.941406 76.554688 14 76.597656 14.042969 C 76.675781 14.066406 76.753906 14.089844 76.8125 14.148438 C 76.871094 14.203125 76.898438 14.300781 76.847656 14.367188 C 76.828125 14.394531 76.796875 14.410156 76.773438 14.433594 C 76.722656 14.488281 76.710938 14.582031 76.75 14.648438 C 76.789062 14.714844 76.878906 14.75 76.953125 14.726562 C 77.097656 14.679688 77.132812 14.484375 77.210938 14.386719 C 77.257812 14.542969 77.308594 14.695312 77.367188 14.84375 C 77.367188 14.847656 77.367188 14.847656 77.367188 14.847656 C 77.328125 14.984375 77.394531 15.140625 77.519531 15.207031 C 77.863281 15.953125 78.359375 16.621094 79.023438 17.164062 C 79.121094 17.328125 79.207031 17.5 79.289062 17.671875 C 79.21875 17.671875 79.144531 17.675781 79.078125 17.699219 C 78.933594 17.753906 78.886719 17.898438 79.007812 18.027344 C 79.054688 18.074219 79.109375 18.109375 79.164062 18.148438 C 79.515625 18.425781 79.195312 18.796875 79.054688 19.113281 Z M 79.054688 19.113281 "/></g><path style=" stroke:none;fill-rule:nonzero;fill:#2dc97d;fill-opacity:1;" d="M 85.15625 13.277344 C 84.933594 13.804688 84.625 13.71875 84.546875 13.363281 C 84.503906 13.175781 84.507812 12.980469 84.46875 12.789062 C 84.429688 12.601562 84.339844 12.40625 84.167969 12.316406 C 84.039062 12.246094 83.855469 12.222656 83.8125 12.082031 C 83.78125 11.960938 83.867188 11.789062 83.757812 11.726562 C 83.609375 11.640625 83.320312 11.984375 83.53125 12.488281 C 83.707031 12.898438 84.160156 13.269531 84.097656 13.75 C 83.824219 13.6875 83.515625 13.828125 83.386719 14.078125 C 83.300781 14.242188 83.289062 14.433594 83.207031 14.59375 C 83.121094 14.757812 82.914062 14.890625 82.757812 14.789062 C 82.597656 14.683594 82.640625 14.441406 82.707031 14.257812 C 82.984375 13.46875 83.03125 13.371094 83.023438 13.222656 C 83.015625 13.109375 82.949219 12.996094 82.839844 12.964844 C 82.683594 12.921875 82.539062 13.0625 82.378906 13.097656 C 82.105469 13.160156 81.855469 12.871094 81.84375 12.59375 C 81.824219 12.039062 82.398438 11.617188 82.242188 11.195312 C 82.207031 11.097656 82.136719 11.023438 82.085938 10.933594 C 81.921875 10.652344 81.972656 10.304688 82.117188 10.011719 C 83.601562 10.535156 84.742188 11.757812 85.15625 13.277344 Z M 85.15625 13.277344 "/><path style=" stroke:none;fill-rule:nonzero;fill:#20b267;fill-opacity:1;" d="M 84.972656 12.738281 C 84.273438 11.632812 83.238281 10.738281 82.039062 10.207031 C 82.058594 10.140625 82.085938 10.074219 82.117188 10.011719 C 83.417969 10.46875 84.460938 11.46875 84.972656 12.738281 Z M 84.972656 12.738281 "/><path style=" stroke:none;fill-rule:nonzero;fill:#2dc97d;fill-opacity:1;" d="M 80.242188 14.203125 C 80.214844 14.320312 80.160156 14.429688 80.125 14.542969 C 80.0625 14.75 80.066406 14.976562 80.003906 15.183594 C 79.941406 15.390625 79.777344 15.597656 79.5625 15.601562 C 79.339844 15.609375 79.171875 15.410156 79.0625 15.21875 C 78.957031 15.023438 78.863281 14.804688 78.667969 14.699219 C 78.4375 14.570312 78.109375 14.679688 78 14.921875 C 77.972656 14.980469 77.957031 15.050781 77.921875 15.105469 C 77.84375 15.230469 77.667969 15.28125 77.535156 15.21875 C 77.390625 15.144531 77.332031 14.984375 77.367188 14.847656 C 77.367188 14.847656 77.367188 14.847656 77.367188 14.84375 C 77.394531 14.746094 77.464844 14.664062 77.503906 14.566406 C 77.542969 14.46875 77.527344 14.332031 77.429688 14.292969 C 77.324219 14.25 77.214844 14.359375 77.164062 14.460938 C 77.113281 14.566406 77.0625 14.691406 76.953125 14.726562 C 76.878906 14.75 76.789062 14.714844 76.75 14.648438 C 76.710938 14.582031 76.722656 14.488281 76.773438 14.433594 C 76.796875 14.410156 76.828125 14.394531 76.847656 14.367188 C 76.898438 14.300781 76.871094 14.203125 76.8125 14.148438 C 76.753906 14.089844 76.675781 14.066406 76.597656 14.042969 C 76.554688 14 76.636719 13.941406 76.691406 13.957031 C 76.75 13.976562 76.796875 14.027344 76.855469 14.019531 C 76.9375 14.011719 76.960938 13.890625 76.917969 13.824219 C 76.871094 13.753906 76.789062 13.71875 76.71875 13.675781 C 76.648438 13.632812 76.578125 13.566406 76.585938 13.484375 C 76.59375 13.394531 76.703125 13.371094 76.761719 13.425781 C 77.007812 13.28125 76.765625 12.738281 77.105469 12.644531 C 77.28125 12.597656 77.449219 12.753906 77.632812 12.671875 C 77.777344 12.609375 77.871094 12.4375 77.835938 12.28125 C 77.816406 12.203125 77.765625 12.128906 77.765625 12.050781 C 77.761719 11.96875 77.835938 11.875 77.910156 11.910156 C 77.933594 11.917969 77.953125 11.941406 77.972656 11.953125 C 78.03125 11.980469 78.105469 11.949219 78.148438 11.898438 C 78.25 11.78125 78.328125 11.628906 78.496094 11.582031 C 78.640625 11.542969 78.726562 11.648438 78.703125 11.800781 C 78.6875 11.914062 78.636719 12.03125 78.683594 12.132812 C 78.730469 12.234375 78.863281 12.273438 78.976562 12.253906 C 79.203125 12.214844 79.382812 11.988281 79.617188 12.046875 C 79.808594 12.089844 79.898438 12.324219 79.875 12.519531 C 79.851562 12.714844 79.75 12.890625 79.695312 13.082031 C 79.640625 13.269531 79.644531 13.503906 79.792969 13.628906 C 79.910156 13.730469 80.085938 13.742188 80.183594 13.859375 C 80.261719 13.953125 80.269531 14.085938 80.242188 14.203125 Z M 80.242188 14.203125 "/><g clip-rule="nonzero" clip-path="url(#db4b75be9d)"><path style=" stroke:none;fill-rule:nonzero;fill:#2dc97d;fill-opacity:1;" d="M 83.40625 17.183594 C 83.332031 17.359375 83.199219 17.523438 83.195312 17.714844 C 83.25 17.652344 83.367188 17.71875 83.375 17.800781 C 83.378906 17.886719 83.3125 17.957031 83.242188 18.003906 C 83.117188 18.089844 82.839844 18.179688 83.035156 18.628906 C 81.796875 19.390625 80.328125 19.519531 79.054688 19.113281 C 79.195312 18.796875 79.515625 18.425781 79.164062 18.148438 C 79.109375 18.109375 79.054688 18.074219 79.007812 18.027344 C 78.886719 17.902344 78.929688 17.753906 79.078125 17.699219 C 79.144531 17.675781 79.21875 17.671875 79.289062 17.671875 C 79.207031 17.507812 79.101562 17.289062 78.996094 17.117188 C 79.097656 17.152344 79.210938 17.085938 79.285156 17.007812 C 79.359375 16.929688 79.417969 16.832031 79.507812 16.769531 C 79.59375 16.703125 79.730469 16.683594 79.804688 16.765625 C 79.855469 16.820312 79.863281 16.902344 79.890625 16.972656 C 79.960938 17.148438 80.214844 17.21875 80.371094 17.105469 C 80.492188 17.015625 80.578125 16.828125 80.730469 16.855469 C 80.863281 16.878906 80.898438 17.058594 80.886719 17.195312 C 80.878906 17.332031 80.882812 17.507812 81.007812 17.5625 C 81.136719 17.625 81.273438 17.496094 81.363281 17.386719 C 81.792969 16.855469 81.808594 16.8125 81.898438 16.796875 C 81.980469 16.78125 82.0625 16.851562 82.085938 16.933594 C 82.140625 17.089844 82.042969 17.308594 82.125 17.523438 C 82.164062 17.628906 82.257812 17.71875 82.371094 17.726562 C 82.5625 17.738281 82.679688 17.53125 82.753906 17.359375 C 82.769531 17.234375 82.789062 17.109375 82.765625 16.984375 C 82.746094 16.863281 82.675781 16.742188 82.566406 16.6875 C 82.453125 16.632812 82.296875 16.667969 82.242188 16.777344 C 82.230469 16.476562 82.300781 16.167969 82.453125 15.90625 C 82.492188 15.832031 82.5625 15.753906 82.644531 15.773438 C 82.808594 15.816406 82.730469 16.128906 82.785156 16.367188 C 82.8125 16.5 82.902344 16.636719 83.035156 16.664062 C 83.113281 16.683594 83.195312 16.664062 83.273438 16.6875 C 83.457031 16.746094 83.480469 17.003906 83.40625 17.183594 Z M 83.40625 17.183594 "/></g><g clip-rule="nonzero" clip-path="url(#abfde206dd)"><path style=" stroke:none;fill-rule:nonzero;fill:#181e1e;fill-opacity:1;" d="M 88.210938 10.265625 L 88.117188 10.585938 C 88.023438 10.535156 88.445312 10.761719 87.277344 10.125 C 82.84375 9.464844 86.007812 9.9375 83.421875 9.550781 L 80.117188 8.804688 L 77.761719 7.582031 C 76.839844 7.515625 76.933594 7.519531 76.945312 7.519531 L 77.039062 7.203125 L 82.957031 6.125 C 83.660156 6.679688 87.945312 10.058594 88.210938 10.265625 Z M 88.210938 10.265625 "/><path style=" stroke:none;fill-rule:nonzero;fill:#2a3134;fill-opacity:1;" d="M 80.019531 9.121094 L 76.945312 7.523438 L 82.863281 6.445312 L 88.117188 10.585938 L 83.328125 9.867188 Z M 80.019531 9.121094 "/></g><path style=" stroke:none;fill-rule:nonzero;fill:#4f575f;fill-opacity:1;" d="M 84.363281 9.507812 C 84.347656 9.90625 84.277344 11.539062 84.28125 11.4375 C 84.265625 11.335938 84.101562 11.195312 83.835938 11.042969 C 83.390625 10.785156 82.660156 10.488281 81.808594 10.238281 C 80.957031 9.984375 80.183594 9.835938 79.671875 9.808594 C 79.359375 9.789062 79.148438 9.820312 79.078125 9.898438 L 80.046875 8.269531 C 80.082031 8.152344 80.308594 8.101562 80.648438 8.113281 C 81.9375 8.15625 84.335938 9.023438 84.363281 9.507812 Z M 84.363281 9.507812 "/><path style=" stroke:none;fill-rule:nonzero;fill:#3d4449;fill-opacity:1;" d="M 84.300781 11.003906 L 84.28125 11.4375 C 84.265625 11.335938 84.101562 11.195312 83.835938 11.042969 C 83.390625 10.785156 82.660156 10.488281 81.808594 10.238281 C 80.957031 9.984375 80.183594 9.835938 79.671875 9.808594 C 79.359375 9.789062 79.148438 9.820312 79.078125 9.898438 L 80.046875 8.269531 C 80.082031 8.152344 80.308594 8.101562 80.648438 8.113281 C 80.792969 8.757812 81.242188 9.339844 81.769531 9.738281 C 82.296875 10.140625 82.914062 10.40625 83.523438 10.667969 C 83.78125 10.777344 84.042969 10.886719 84.300781 11.003906 Z M 84.300781 11.003906 "/><path style=" stroke:none;fill-rule:nonzero;fill:#ebf2ff;fill-opacity:1;" d="M 84.90625 11.582031 C 84.898438 11.632812 84.851562 11.664062 84.800781 11.648438 C 84.761719 11.636719 84.738281 11.601562 84.742188 11.558594 C 84.921875 10.332031 85.410156 9.046875 85.109375 7.820312 L 85.308594 7.980469 C 85.527344 9.1875 85.078125 10.40625 84.90625 11.582031 Z M 84.90625 11.582031 "/><path style=" stroke:none;fill-rule:nonzero;fill:#ffca6c;fill-opacity:1;" d="M 84.761719 11.265625 C 84.457031 11.878906 84.476562 12.640625 84.816406 13.230469 C 84.777344 13.03125 84.78125 12.820312 84.824219 12.621094 C 84.980469 12.886719 85.21875 13.101562 85.492188 13.234375 C 85.371094 13.132812 85.273438 12.992188 85.21875 12.839844 C 85.519531 13.128906 85.9375 13.289062 86.355469 13.273438 C 86.054688 13.125 85.796875 12.894531 85.613281 12.617188 C 85.804688 12.78125 86.089844 12.832031 86.328125 12.742188 C 85.714844 12.496094 85.257812 11.894531 85.1875 11.238281 Z M 84.761719 11.265625 "/><path style=" stroke:none;fill-rule:nonzero;fill:#ff6161;fill-opacity:1;" d="M 84.71875 10.75 C 84.875 10.628906 85.128906 10.65625 85.257812 10.804688 C 85.386719 10.957031 85.375 11.207031 85.234375 11.347656 C 85.066406 11.519531 84.6875 11.59375 84.574219 11.324219 C 84.5 11.144531 84.566406 10.875 84.71875 10.75 Z M 84.71875 10.75 "/><path style=" stroke:none;fill-rule:nonzero;fill:#ff6161;fill-opacity:1;" d="M 77.972656 10.792969 C 78.445312 11.195312 78.644531 11.167969 78.914062 11.445312 C 78.933594 11.464844 79 11.5625 79.019531 11.566406 C 78.8125 11.527344 78.609375 11.488281 78.40625 11.453125 C 78.476562 11.632812 78.574219 11.808594 78.691406 11.960938 C 78.664062 11.929688 78.601562 11.917969 78.570312 11.90625 C 78.371094 11.824219 77.988281 11.515625 77.734375 11.097656 "/><g clip-rule="nonzero" clip-path="url(#a996bf9d2c)"><path style=" stroke:none;fill-rule:nonzero;fill:#ebf2ff;fill-opacity:1;" d="M 80.835938 9.90625 L 77.609375 11.261719 L 75.074219 12.324219 C 75.011719 12.347656 74.9375 12.34375 74.882812 12.304688 C 74.398438 11.96875 74.207031 11.511719 74.304688 10.933594 C 74.3125 10.886719 74.335938 10.847656 74.371094 10.820312 C 74.386719 10.804688 74.40625 10.792969 74.425781 10.785156 L 80.191406 8.367188 Z M 80.835938 9.90625 "/></g><path style=" stroke:none;fill-rule:nonzero;fill:#cbdbf4;fill-opacity:1;" d="M 80.191406 8.367188 C 80.003906 8.445312 80 8.851562 80.179688 9.277344 C 80.359375 9.703125 80.652344 9.984375 80.835938 9.90625 C 81.023438 9.828125 81.027344 9.421875 80.847656 8.996094 C 80.667969 8.574219 80.375 8.289062 80.191406 8.367188 Z M 80.191406 8.367188 "/><path style=" stroke:none;fill-rule:nonzero;fill:#ff6161;fill-opacity:1;" d="M 77.5625 9.46875 L 77.144531 9.644531 C 77.058594 10.246094 77.316406 10.835938 77.800781 11.179688 C 77.804688 11.183594 77.847656 11.160156 77.851562 11.160156 C 77.859375 11.15625 78.253906 10.988281 78.230469 11 C 78.164062 10.980469 78.109375 10.933594 78.050781 10.894531 C 77.835938 10.75 77.6875 10.554688 77.59375 10.328125 C 77.421875 9.894531 77.558594 9.535156 77.558594 9.5 Z M 77.5625 9.46875 "/><g clip-rule="nonzero" clip-path="url(#c29832cacc)"><path style=" stroke:none;fill-rule:nonzero;fill:#dbe6fa;fill-opacity:1;" d="M 77.609375 11.261719 L 75.074219 12.324219 C 75.011719 12.347656 74.9375 12.34375 74.882812 12.304688 C 74.398438 11.96875 74.207031 11.511719 74.304688 10.933594 C 74.3125 10.886719 74.335938 10.847656 74.371094 10.820312 C 74.871094 11.488281 76.128906 11.515625 76.960938 11.386719 C 77.179688 11.355469 77.398438 11.3125 77.609375 11.261719 Z M 77.609375 11.261719 "/></g><path style=" stroke:none;fill-rule:nonzero;fill:#ffffff;fill-opacity:0.4;" d="M 84.488281 14.136719 C 84.503906 14.464844 84.503906 14.789062 84.414062 15.109375 C 84.34375 15.359375 84.734375 15.464844 84.800781 15.21875 C 84.902344 14.863281 84.90625 14.5 84.890625 14.136719 C 84.875 13.878906 84.476562 13.875 84.488281 14.136719 Z M 84.488281 14.136719 "/><path style=" stroke:none;fill-rule:nonzero;fill:#ffffff;fill-opacity:0.4;" d="M 84.296875 15.667969 C 84.269531 15.757812 84.246094 15.84375 84.21875 15.933594 C 84.191406 16.035156 84.253906 16.15625 84.359375 16.179688 C 84.46875 16.203125 84.578125 16.148438 84.605469 16.039062 C 84.632812 15.953125 84.65625 15.863281 84.683594 15.773438 C 84.710938 15.675781 84.648438 15.550781 84.542969 15.527344 C 84.4375 15.503906 84.328125 15.558594 84.296875 15.667969 Z M 84.296875 15.667969 "/><path style=" stroke:none;fill-rule:nonzero;fill:#20b267;fill-opacity:1;" d="M 76.964844 12.742188 C 76.96875 13.296875 77.054688 13.855469 77.210938 14.386719 C 77.128906 14.488281 77.097656 14.679688 76.953125 14.726562 C 76.878906 14.75 76.789062 14.714844 76.75 14.648438 C 76.710938 14.582031 76.722656 14.488281 76.773438 14.433594 C 76.796875 14.410156 76.828125 14.394531 76.847656 14.367188 C 76.898438 14.300781 76.871094 14.203125 76.8125 14.148438 C 76.753906 14.089844 76.675781 14.066406 76.597656 14.042969 C 76.554688 14 76.636719 13.941406 76.691406 13.957031 C 76.75 13.976562 76.796875 14.027344 76.855469 14.019531 C 76.9375 14.011719 76.960938 13.890625 76.917969 13.824219 C 76.871094 13.753906 76.789062 13.71875 76.71875 13.675781 C 76.648438 13.632812 76.578125 13.566406 76.585938 13.484375 C 76.59375 13.394531 76.703125 13.371094 76.761719 13.425781 C 76.957031 13.308594 76.839844 12.929688 76.964844 12.742188 Z M 76.964844 12.742188 "/><path style=" stroke:none;fill-rule:nonzero;fill:#20b267;fill-opacity:1;" d="M 77.367188 14.84375 C 77.414062 14.96875 77.464844 15.089844 77.519531 15.207031 C 77.394531 15.140625 77.328125 14.984375 77.367188 14.847656 C 77.367188 14.847656 77.367188 14.847656 77.367188 14.84375 Z M 77.367188 14.84375 "/><g clip-rule="nonzero" clip-path="url(#7495030ed9)"><path style=" stroke:none;fill-rule:nonzero;fill:#20b267;fill-opacity:1;" d="M 83.292969 18.457031 C 81.972656 19.378906 80.410156 19.546875 79.054688 19.113281 C 79.195312 18.796875 79.515625 18.425781 79.164062 18.148438 C 79.109375 18.109375 79.054688 18.074219 79.007812 18.027344 C 78.886719 17.902344 78.929688 17.753906 79.078125 17.699219 C 79.144531 17.675781 79.21875 17.671875 79.289062 17.671875 C 79.207031 17.5 79.121094 17.328125 79.023438 17.164062 C 80.210938 18.140625 81.800781 18.59375 83.292969 18.457031 Z M 83.292969 18.457031 "/></g><g clip-rule="nonzero" clip-path="url(#5aff1e7486)"><path style=" stroke:none;fill-rule:nonzero;fill:#ffffff;fill-opacity:0.4;" d="M 82.539062 7.097656 C 82.726562 7.242188 82.90625 7.402344 83.078125 7.566406 C 83.261719 7.75 83.546875 7.464844 83.359375 7.285156 C 83.191406 7.117188 83.011719 6.960938 82.820312 6.8125 C 82.738281 6.746094 82.621094 6.730469 82.539062 6.8125 C 82.46875 6.882812 82.453125 7.027344 82.539062 7.097656 Z M 82.539062 7.097656 "/></g><path style=" stroke:none;fill-rule:nonzero;fill:#ffffff;fill-opacity:0.4;" d="M 83.542969 8.007812 C 83.5625 8.023438 83.578125 8.039062 83.597656 8.054688 C 83.679688 8.121094 83.804688 8.140625 83.882812 8.054688 C 83.949219 7.980469 83.96875 7.84375 83.882812 7.773438 C 83.863281 7.757812 83.84375 7.742188 83.828125 7.726562 C 83.746094 7.65625 83.621094 7.640625 83.542969 7.726562 C 83.472656 7.800781 83.457031 7.9375 83.542969 8.007812 Z M 83.542969 8.007812 "/><path style=" stroke:none;fill-rule:nonzero;fill:#ffffff;fill-opacity:0.8;" d="M 79.5 8.910156 C 79.335938 8.988281 79.167969 9.066406 79 9.140625 C 78.839844 9.210938 78.976562 9.441406 79.132812 9.371094 C 79.300781 9.296875 79.46875 9.21875 79.636719 9.140625 C 79.792969 9.066406 79.65625 8.835938 79.5 8.910156 Z M 79.5 8.910156 "/><path style=" stroke:none;fill-rule:nonzero;fill:#ffffff;fill-opacity:0.8;" d="M 78.632812 9.308594 C 78.609375 9.316406 78.589844 9.324219 78.566406 9.332031 C 78.5 9.359375 78.453125 9.421875 78.472656 9.5 C 78.492188 9.5625 78.570312 9.617188 78.636719 9.589844 C 78.660156 9.582031 78.679688 9.574219 78.703125 9.566406 C 78.769531 9.539062 78.816406 9.476562 78.796875 9.402344 C 78.777344 9.335938 78.699219 9.28125 78.632812 9.308594 Z M 78.632812 9.308594 "/></g></svg>